/* XPM */
static char *_a3c6fb4eed046b7824abdf8ef5d84c35qaAieSqqbG9Txh6[] = {
/* columns rows colors chars-per-pixel */
"32 32 125 2 ",
"   c #3B5367",
".  c #3A5265",
"X  c #395163",
"o  c #384F61",
"O  c #374D5F",
"+  c #354B5C",
"@  c #34495A",
"#  c #324757",
"$  c #314555",
"%  c #304454",
"&  c #2F4352",
"*  c #2F4251",
"=  c #2E4151",
"-  c #2E4150",
";  c #3C5468",
":  c #3C5569",
">  c #69849A",
",  c #3F5B70",
"<  c #3E586E",
"1  c #3C566A",
"2  c #3A5367",
"3  c #385063",
"4  c #364D60",
"5  c #344B5C",
"6  c #45596A",
"7  c #435767",
"8  c #425565",
"9  c #415463",
"0  c #405362",
"q  c #3F5261",
"w  c #2F4354",
"e  c #304555",
"r  c #314657",
"t  c #324859",
"y  c #405C72",
"u  c #415E74",
"i  c #3C5568",
"p  c #688398",
"a  c #3E596F",
"s  c #3C576B",
"d  c #50687B",
"f  c #4D6376",
"g  c #495F70",
"h  c #465A6B",
"j  c #435666",
"k  c #3E505F",
"l  c #3C4D5C",
"z  c #3B4C5A",
"x  c #3A4B58",
"c  c #394A58",
"v  c #394A57",
"b  c #3A5468",
"n  c #405B71",
"m  c #415D73",
"M  c #678197",
"N  c #3D586D",
"B  c #52697D",
"V  c #4E6577",
"C  c #4A6071",
"Z  c #384753",
"A  c #546D81",
"S  c #668096",
"D  c #3D576C",
"F  c #50677A",
"G  c #4C6274",
"H  c #475C6D",
"J  c #55647D",
"K  c #536C80",
"L  c #3F5A70",
"P  c #657F95",
"I  c #4F6679",
"U  c #7891A5",
"Y  c #526A7E",
"T  c #566F83",
"R  c #3B5467",
"E  c #647E93",
"W  c #3B5569",
"Q  c #4E6477",
"!  c #495E6F",
"~  c #384956",
"^  c #FF5A00",
"/  c #556E82",
"(  c #51697C",
")  c #4C6375",
"_  c #364653",
"`  c #647D92",
"'  c #475B6C",
"]  c #354451",
"[  c #FFD461",
"{  c #577085",
"}  c #3B5366",
"|  c #4B6274",
" . c #465B6B",
".. c #344350",
"X. c #637D92",
"o. c #33424F",
"O. c #546C80",
"+. c #4B6173",
"@. c #33424E",
"#. c #374E61",
"$. c #32485A",
"%. c #394957",
"&. c #33414D",
"*. c #455A6A",
"=. c #3B5469",
"-. c #536B7F",
";. c #6A859B",
":. c #334A5B",
">. c #33495A",
",. c #425E75",
"<. c #6A869C",
"1. c #374F62",
"2. c #385164",
"3. c #395266",
"4. c #3D5569",
"5. c #6B879D",
"6. c #688399",
"7. c #637C91",
"8. c #617A8F",
"9. c #61798E",
"0. c #60788D",
"q. c #5F788C",
"w. c #5F778B",
"e. c #6C879E",
"r. c black",
/* pixels */
"  . X o O + @ # $ % & * = - - - - = * & % $ # @ + O o X .   ; : ",
"> , < 1 2 3 4 5 6 7 8 9 0 q q q q 0 w e r t 5 4 3 2 1 < , y u i ",
"p a s d f g h j 0 k l z x c v v c x z l k 0 j h g 3 b s a n m ; ",
"M N B V C h 8 k Z Z Z Z Z Z Z Z Z Z Z Z Z Z Z Z Z Z V B A , m ; ",
"S D F G H j k Z J J J J J J J J J J J J J J J J J J Z F K L y ; ",
"P 1 I C 6 0 z Z U U U U U U U U U U U U U U U U U U Z I Y T n R ",
"E W Q ! 7 k ~ Z U ^ ^ ^ ^ ^ ^ ^ ^ ^ ^ ^ ^ ^ ^ ^ ^ U Z Q B / n   ",
"E ( ) H 8 l _ Z U ^ ^ ^ ^ ^ ^ ^ ^ ^ ^ ^ ^ ^ ^ ^ ^ U Z ) ( A ,   ",
"` d G ' 9 z ] Z U ^ ^ [ [ [ ^ [ [ [ [ [ [ [ [ ^ ^ U Z G d A { } ",
"` d |  .0 x ..Z U ^ ^ ^ ^ ^ ^ ^ ^ ^ ^ ^ ^ ^ ^ ^ ^ U Z | d A { } ",
"X.d | h q c o.Z U ^ ^ [ ^ [ [ [ [ [ [ [ ^ ^ [ ^ ^ U Z | d O.L } ",
"X.2 +.h q v @.Z U ^ ^ ^ ^ ^ ^ ^ ^ ^ ^ ^ ^ ^ ^ ^ ^ U Z +.F O.L } ",
"X.2 #.$.q %.&.Z U ^ ^ [ [ [ [ [ [ [ [ [ [ ^ [ ^ ^ U Z +.2 D L } ",
"X.2 #.*.q %.&.Z U ^ ^ ^ ^ ^ ^ ^ ^ ^ ^ ^ ^ ^ ^ ^ ^ U Z +.F O.L } ",
"X.2 +.*.q %.&.Z U ^ ^ ^ ^ ^ ^ ^ ^ ^ ^ ^ ^ ^ ^ ^ ^ U Z +.F O.L } ",
"X.F +.*.q %.&.Z U ^ ^ ^ ^ ^ ^ ^ ^ ^ ^ ^ ^ ^ ^ ^ ^ U Z #.2 O.L } ",
"X.F +.*.q %.&.Z U ^ ^ ^ ^ ^ ^ ^ ^ ^ ^ ^ ^ ^ ^ ^ ^ U Z +.F O.L } ",
"X.F +.*.q %.&.Z U ^ ^ [ [ [ [ ^ ^ ^ ^ [ ^ [ ^ ^ ^ U Z +.F O.{ } ",
"X.F +.h q v @.Z U ^ ^ ^ ^ ^ ^ ^ ^ ^ ^ [ ^ [ ^ ^ ^ U Z +.F O.{ } ",
"X.d | h q c o.Z U ^ ^ [ [ ^ [ ^ ^ ^ ^ [ ^ [ ^ ^ ^ U Z | d O.{ } ",
"` d |  .0 x ..Z U ^ ^ ^ ^ ^ ^ ^ ^ ^ ^ ^ ^ [ ^ ^ ^ U Z | d A { } ",
"` d G ' 9 z ] Z U ^ ^ [ [ [ [ ^ ^ ^ ^ [ ^ [ ^ ^ ^ U Z G d A , } ",
"E =.) H 8 l _ Z U ^ ^ ^ ^ ^ ^ ^ ^ ^ ^ ^ ^ ^ ^ ^ ^ U Z ) ( A ,   ",
"E W Q ! 7 k ~ Z U U U U U U U U U U U U U U U U U U Z Q B / n   ",
"P 1 I C 6 0 z Z U J J J J J J J J J J J J J J J J U Z I Y T n R ",
"S D 2 G H j k Z U J [ J J J J U U U J U U U J U J U Z F K L y ; ",
"M N W V C h 8 Z U J J J J J J J J J J J J J J J J U Z B A , m ; ",
"p a s b f g h Z U U U U U U U U U U U U U U U U U U Z -.T n m ; ",
"> , < 1 2 f C H Z Z Z Z Z Z Z Z Z Z Z Z Z Z Z Z Z Z Y < , y u i ",
";.y L N 1 d V G C ! H :. .h >.h h  .' H ! C G V b 1 N L y m ,.: ",
"<.m n L < s W 2 I Q 3 1.1.1.#.#.| | 1.3 2.3.2 W s < L n m u ,.4.",
"5.<.;.6.M P E 7.8.9.0.q.w.w.w.w.w.w.q.0.9.8.7.E P M 6.;.<.5.e.4."
};
