/* XPM */
static char *_a978684f25a4139a2d9505341496375yagoctmBs4JH8ja1[] = {
/* columns rows colors chars-per-pixel */
"32 32 194 2 ",
"   c #3A5164",
".  c #395063",
"X  c #384F61",
"o  c #374E60",
"O  c #364C5E",
"+  c #354B5C",
"@  c #344A5B",
"#  c #334959",
"$  c #334758",
"%  c #324757",
"&  c #324657",
"*  c #324656",
"=  c #334859",
"-  c #374D5F",
";  c #395164",
":  c #3A5265",
">  c #3B5366",
",  c #3B5467",
"<  c #3C5468",
"1  c #3C5568",
"2  c #3C5569",
"3  c #3D5569",
"4  c #3D566A",
"5  c #668096",
"6  c #3E586E",
"7  c #3C576B",
"8  c #3B5569",
"9  c #3A5367",
"0  c #395265",
"q  c #385063",
"w  c #374E61",
"e  c #4A6071",
"r  c #495E70",
"t  c #485D6F",
"y  c #495E6F",
"u  c #4A5F71",
"i  c #4B6172",
"p  c #4C6275",
"a  c #4E6477",
"s  c #3B5469",
"d  c #3C566B",
"f  c #3D586D",
"g  c #3E596F",
"h  c #3F5B70",
"j  c #405C72",
"k  c #415D73",
"l  c #415E74",
"z  c #425E75",
"x  c #425F76",
"c  c #657F94",
"v  c #3D576C",
"b  c #3C556A",
"n  c #50677A",
"m  c #4E6577",
"M  c #4A6072",
"N  c #475C6D",
"B  c #465B6B",
"V  c #455A6A",
"C  c #45596A",
"Z  c #3A0911",
"A  c #51697C",
"S  c #536B7F",
"D  c #546D81",
"F  c #567084",
"G  c #577186",
"H  c #415D74",
"J  c #647D92",
"K  c #3C566A",
"L  c #50687B",
"P  c #4E6578",
"I  c #485D6E",
"U  c #445869",
"Y  c #435767",
"T  c #425666",
"R  c #425565",
"E  c #811426",
"W  c #A11B31",
"Q  c #52697D",
"!  c #536C80",
"~  c #556E82",
"^  c #577085",
"/  c #587287",
"(  c #597389",
")  c #5A748A",
"_  c #5B758B",
"`  c #637C91",
"'  c #4F6679",
"]  c #4C6375",
"[  c #465A6B",
"{  c #405362",
"}  c #3F5261",
"|  c #526A7E",
" . c #566F84",
".. c #597489",
"X. c #5A758A",
"o. c #627B90",
"O. c #3A5468",
"+. c #4B6173",
"@. c #415464",
"#. c #3D4F5E",
"$. c black",
"%. c #617A8E",
"&. c #4D6376",
"*. c #3F5160",
"=. c #3D4E5D",
"-. c #3B4D5B",
";. c #587186",
":. c #597388",
">. c #60798D",
",. c #4C6274",
"<. c #3D4F5D",
"1. c #3B4C5A",
"2. c #5F788C",
"3. c #455969",
"4. c #3E505F",
"5. c #394A57",
"6. c white",
"7. c #566F83",
"8. c #5B768B",
"9. c #5F778B",
"0. c #4D6476",
"q. c #3A4B59",
"w. c #384855",
"e. c #5E778B",
"r. c #465B6C",
"t. c #435666",
"y. c #3C4D5C",
"u. c #364653",
"i. c #5E768A",
"p. c #495F70",
"a. c #384956",
"s. c #354552",
"d. c #33424F",
"f. c #354C5F",
"g. c #33495A",
"h. c #3E5160",
"j. c #354451",
"k. c #33414D",
"l. c #313F4B",
"z. c #303E4A",
"x. c #374F62",
"c. c #354C5E",
"v. c #3A4C5A",
"b. c #374755",
"n. c #344450",
"m. c #32414D",
"M. c #303F4A",
"N. c #303E49",
"B. c #374754",
"V. c #344350",
"C. c #32404C",
"Z. c #2F3D48",
"A. c #546C80",
"S. c #405B71",
"D. c #384856",
"F. c #354551",
"G. c #33424E",
"H. c #394957",
"J. c #364652",
"K. c #34434F",
"L. c #475B6C",
"P. c #3A4B58",
"I. c #60788D",
"U. c #4B6274",
"Y. c #61798E",
"T. c #3A5266",
"R. c #445868",
"E. c #3C4E5C",
"W. c #617A8F",
"Q. c #415463",
"!. c #627C90",
"~. c #395266",
"^. c #647E93",
"/. c #668095",
"(. c #344A5C",
"). c #678197",
"_. c #364E60",
"`. c #4F677A",
"'. c #688398",
"]. c #3F5A70",
"[. c #385164",
"{. c #395165",
"}. c #3E596E",
"|. c #69849A",
" X c #637D92",
".X c #657F95",
"XX c #678298",
"oX c #688399",
"OX c #6A859C",
"+X c #6B869D",
"@X c #6B879D",
"#X c #6C879E",
"$X c #6C889F",
"%X c #6D889F",
/* pixels */
"  . X o O + @ # $ % & * * & $ = @ + O - X . ; : > , < 1 2 3 4 4 ",
"5 6 7 8 9 0 q w e r t t t y u i p a 9 s d f g h j k l z x x x 4 ",
"c v b n m p M y N B V C V Z Z Z Z Z Z Z A S D F G j H z z x x 4 ",
"J K L P p e I B U Y T R Z E W W W W W W Z Q ! ~ ^ / ( ) _ x x 4 ",
"` 8 ' ] M I [ Y R { } Z E W W W Z Z Z Z W Z | D  .G / ..X.x x 3 ",
"o.O.m +.y B Y @.} #.Z E W W W Z $.$.$.$.Z W Z ! ~ ^ / ( ) _ x 3 ",
"%.9 &.e N U @.*.=.-.Z E W W Z $.$.$.$.$.$.Z W Z ~ F ;.:.) _ x 3 ",
">.' ,.y [ T } <.1.Z E E W W Z $.$.$.$.$.$.Z W Z D  .G :...X.x 3 ",
"2.m +.I 3.@.4.-.5.Z E E E W Z $.6.$.$.$.6.Z W Z ! 7.^ / ..X.8.3 ",
"9.0.M N Y { <.q.w.Z E Z E W Z $.6.$.$.$.6.Z W Z S ~ ^ / ( X._ 3 ",
"e.&.u r.t.} y.5.u.Z E Z E W Z $.$.$.$.$.$.Z E Z S ~ ^ / ( ) z 2 ",
"i.q p.B T *.-.a.s.d.Z Z E E W Z $.$.$.$.$.Z E Z | D F ;.( ) z 2 ",
"i.q f.g.R h.1.w.j.k.l.z.Z E E E Z $.$.$.Z E Z ' | D  .;.k l z 2 ",
"i.x.c.V R 4.v.b.n.m.M.N.N.Z Z E E Z Z Z E Z ,.' Q D  .G :.) z 2 ",
"i.x.r V R 4.v.B.V.C.M.Z.Z E E E W W W W W E Z ' A A. .G :...z 2 ",
"i.p r V R 4.q.B.V.C.z.Z E W W W W W W W W W E Z A v g S.j ..z 2 ",
"i.p r V R 4.v.b.n.C.M.Z E W W W W W W W W W E Z A ! 7.G / ..z 2 ",
"i.] r [ R 4.1.b.j.m.l.Z W W W W W W W W W W W Z A ! 7.^ / ..X.2 ",
"i.] p.[ R h.-.D.F.G.Z E W W W W W W W W W W W Z A ! 7.^ / ..X.2 ",
"e.&.u r.t.} y.H.J.K.Z E W W W W W W E W W W W E Z ! 7.G / ..X.2 ",
"9.0.e L.Y { =.P.B.F.Z E W W W W W W E W W W W E Z A.7.G / ..X.2 ",
"2.a i N U @.4.1.a.u.Z E W W W W W E Z E W W E E Z D  .G :...z 2 ",
"I.0 U.y V T } =.q.Z E E E W E W E E Z E E W E E Z D F ;.:.) z 2 ",
"Y.T.] u L.R.@.h.E.Z E E E E W E E Z $.Z E E E E Z ~ ^ ;.( ) z 2 ",
"W.O.a +.t [ Y Q.h.Z E Z E E E E Z $.$.Z E E Z E Z ~ ^ / ( ) z 2 ",
"!.8 ~.] e N V Y @.} Z Z E Z E E Z $.$.$.Z E E Z D  .G / ..z z 3 ",
"J K O.m ,.u N [ R.T @.Z Z @.Z Z Z L.y $.Z Z Z ! ~ ^ ;.:.) z x 3 ",
"^.v 8 9 a ,.e t L.V 3.U R.U $.$.N p.+.&.$.A S D  .G / ( ) z x 3 ",
"/.f 7 8 9 m p i u y I (.N N t $.M U.0.' $.| A.~ ^ ;.:.H z x x 3 ",
").g f 7 8 L ' 0.p U.i _.M M w $.&.m `.A $.A.~ F S.j k l z x x 4 ",
"'.].g f 7 b s 9 ' m [.[.[.[.{.0 `.L 8 d v }.].S.j k l z x x x 4 ",
"|.'.)./.^. X!.%.>.2.9.e.e.9.2.I.Y.o.` ^..X5 XXoX|.OX+X@X#X$X%X4 "
};
