/* XPM */
static char *fabb102484154ce2e47ba90a7582df0eF5rZXBBtyj1ZOe2r[] = {
/* columns rows colors chars-per-pixel */
"32 32 4 1 ",
"  c None",
". c #FF5A00",
"X c #FF9C28",
"o c #FFD461",
/* pixels */
"                                ",
"                                ",
"                                ",
"                                ",
"                                ",
"                                ",
"                                ",
"                                ",
"    ......................      ",
"   .oooooooooooooooooooooo.     ",
"   .XXXXXXXXXXXXXXXXXXXXXX.     ",
"   .XXXXXXXXXXXXXXXXXXXXXX.     ",
"    ......................      ",
"                                ",
"    ......................      ",
"   .oooooooooooooooooooooo.     ",
"   .oooooooooooooooooooooo.     ",
"   .XXXXXXXXXXXXXXXXXXXXXX.     ",
"   .XXXXXXXXXXXXXXXXXXXXXX.     ",
"    ......................      ",
"                                ",
"    ......................      ",
"   .oooooooooooooooooooooo.     ",
"   .XXXXXXXXXXXXXXXXXXXXXX.     ",
"   .XXXXXXXXXXXXXXXXXXXXXX.     ",
"    ......................      ",
"                                ",
"                                ",
"                                ",
"                                ",
"                                ",
"                                "
};
