/* XPM */
static char *_99c442a1d7c41e5e1e53666b3203f49cSH4epPnHElXOA1P[] = {
/* columns rows colors chars-per-pixel */
"32 32 34 1 ",
"  c #011633",
". c #011734",
"X c #011836",
"o c #011938",
"O c #011A39",
"+ c #011B3B",
"@ c #011C3D",
"# c #021D3F",
"$ c #021E40",
"% c #021F42",
"& c #022044",
"* c #022046",
"= c #022247",
"- c #022349",
"; c #03244B",
": c #03264E",
"> c #032750",
", c #032852",
"< c #032954",
"1 c #042B57",
"2 c #042C59",
"3 c #042D5B",
"4 c #042E5C",
"5 c #042F5E",
"6 c #043060",
"7 c #053162",
"8 c #69DCDC",
"9 c #68C0EE",
"0 c #8AD0F4",
"q c #80FFFF",
"w c #ABE0FF",
"e c #BBFFFF",
"r c #C3E9FF",
"t c #EFFAFF",
/* pixels */
"77777777777777777777777777777777",
"7tttttttttttttttttttttttttttttt7",
"7t7777777777777777777776777777t7",
"7t5777856677666666666666666666t6",
"4t7477876464646466664666636q66t6",
"4t4477qq33444444433333333qq333t3",
"4t4242qqq343333333333333qq3333t3",
"2t2222qq1311rrrrrrrr331qq13131t1",
"1t11111111rrr311111www<2>31111t1",
"1t1111,1,rr1>1wwww<1<ww11>121>t1",
",t,,1,>1rr>1wwwwwwww<<ww>1>111t>",
">t1>>1>>r>>w>>0000,,w,>w>1>>>>t>",
">t>>>>>rr>w:0>9999:0:w:w0>>>>>t>",
":t:::::r::w::9::,:9::w::0:::::t:",
":t:;:;:r:ww09;:ee:;90ww:0::;:;t:",
";t;;;;;r;ww09:rqq8;90ww;0;;;;;t;",
"-t-;--&r-ww09-eqq8;90ww-0-:;--t-",
"-t%:&--r&ww09-&88==90ww&0-%%%;t%",
"%t%%%--r&-w&$9&-=%9=&w&$0&--%%t%",
"%t-%%%%rw%w&0&9999%0$w;0$&%&-%t-",
"%t%%%&$%w%$w$$0000&&w%&0$%$%%%t%",
"%t@%##$$ww$$wwwwwwww@%00$$$$%%t%",
"#t%@#####ww#@$wwww@@#00#$$@$%@t@",
"@t@@@@@@##www@@@@@@w00@@@q@@@@t@",
"@t%$@oqo@o@@00000000@o$o@qqo$oto",
".t$:@qqq+oo++Xo++o+oooooo.qqooto",
".t@8qq.XoXXXXo+oXoo+ooo.oo.qqoto",
"ot..XXXXXX..X..X.XXXXo...oo.XXtX",
".t............................t.",
" t  ....        ....        ..t.",
" tttttttttttttttttttttttttttttt.",
"                ....          .."
};
